<svg width="242" height="156" viewBox="0 0 242 156" fill="none" xmlns="http://www.w3.org/2000/svg">
<g filter="url(#filter0_d)">
<path d="M81.0968 10.1796H55.2543C51.6882 10.1796 48.7973 12.966 48.7973 16.4033V41.3122C48.7973 44.7495 51.6882 47.5359 55.2543 47.5359H81.0968C84.6629 47.5359 87.5538 44.7495 87.5538 41.3122V16.4033C87.5538 12.966 84.6629 10.1796 81.0968 10.1796Z" fill="#56CCF2"/>
</g>
<path d="M77.8724 27.552H73.9438L76.9963 24.5896L75.6679 23.2912L71.2777 27.552H69.3935V25.7234L73.7837 21.4626L72.4459 20.1733L69.3935 23.1358V19.323H67.5093V23.1358L64.4568 20.1733L63.119 21.4626L67.5093 25.7234V27.552H65.625L61.2348 23.2912L59.9065 24.5896L62.9589 27.552H59.0303V29.3807H62.9589L59.9065 32.3432L61.2348 33.6415L65.625 29.3807H67.5093V31.2094L63.119 35.4702L64.4568 36.7594L67.5093 33.797V37.6098H69.3935V33.797L72.4459 36.7594L73.7837 35.4702L69.3935 31.2094V29.3807H71.2777L75.6679 33.6415L76.9963 32.3432L73.9438 29.3807H77.8724V27.552Z" fill="white"/>
<g filter="url(#filter1_d)">
<path d="M214.745 98.3564H188.903C185.337 98.3564 182.446 101.143 182.446 104.58V129.489C182.446 132.926 185.337 135.713 188.903 135.713H214.745C218.312 135.713 221.202 132.926 221.202 129.489V104.58C221.202 101.143 218.312 98.3564 214.745 98.3564Z" fill="#F2C94C"/>
</g>
<path d="M210.709 113.9C210.709 109.328 206.941 105.671 202.23 105.671C197.52 105.671 193.751 109.328 193.751 113.9C193.751 116.735 195.259 119.295 197.52 120.758V123.044C197.52 124.232 198.273 125.238 199.404 125.604V125.787C199.404 127.341 200.629 128.53 202.23 128.53C203.832 128.53 205.057 127.341 205.057 125.787V125.604C206.187 125.238 206.941 124.232 206.941 123.044V120.758C209.202 119.295 210.709 116.735 210.709 113.9ZM195.636 113.9C195.636 110.334 198.556 107.5 202.23 107.5C205.904 107.5 208.825 110.334 208.825 113.9C208.825 117.1 206.375 119.752 203.172 120.209V117.923L204.774 116.369C205.151 116.003 205.151 115.455 204.774 115.089C204.397 114.723 203.832 114.723 203.455 115.089L202.23 116.277L201.005 115.089C200.629 114.723 200.063 114.723 199.687 115.089C199.31 115.455 199.31 116.003 199.687 116.369L201.288 117.923V120.209C198.085 119.752 195.636 117.1 195.636 113.9ZM202.23 126.701C201.665 126.701 201.288 126.335 201.288 125.787H203.172C203.172 126.335 202.795 126.701 202.23 126.701ZM205.057 123.044C205.057 123.592 204.68 123.958 204.114 123.958H200.346C199.781 123.958 199.404 123.592 199.404 123.044V121.672C200.252 121.946 201.194 122.129 202.23 122.129C203.267 122.129 204.209 121.946 205.057 121.672V123.044Z" fill="white"/>
<g filter="url(#filter2_d)">
<path d="M42.3402 98.3564H16.4977C12.9316 98.3564 10.0407 101.143 10.0407 104.58V129.489C10.0407 132.926 12.9316 135.713 16.4977 135.713H42.3402C45.9063 135.713 48.7972 132.926 48.7972 129.489V104.58C48.7972 101.143 45.9063 98.3564 42.3402 98.3564Z" fill="#F58A8A"/>
</g>
<path d="M35.4776 113.9H34.5355V112.071C34.5355 109.548 32.4251 107.5 29.8249 107.5C27.2247 107.5 25.1144 109.548 25.1144 112.071V113.9H24.1723C23.136 113.9 22.2881 114.723 22.2881 115.729V124.872C22.2881 125.878 23.136 126.701 24.1723 126.701H35.4776C36.5139 126.701 37.3618 125.878 37.3618 124.872V115.729C37.3618 114.723 36.5139 113.9 35.4776 113.9ZM29.8249 122.129C28.7886 122.129 27.9407 121.306 27.9407 120.301C27.9407 119.295 28.7886 118.472 29.8249 118.472C30.8612 118.472 31.7091 119.295 31.7091 120.301C31.7091 121.306 30.8612 122.129 29.8249 122.129ZM32.7455 113.9H26.9044V112.071C26.9044 110.508 28.2139 109.237 29.8249 109.237C31.4359 109.237 32.7455 110.508 32.7455 112.071V113.9Z" fill="white"/>
<g filter="url(#filter3_d)">
<path d="M172.351 10.1796H146.508C142.942 10.1796 140.051 12.966 140.051 16.4033V41.3122C140.051 44.7495 142.942 47.5359 146.508 47.5359H172.351C175.917 47.5359 178.808 44.7495 178.808 41.3122V16.4033C178.808 12.966 175.917 10.1796 172.351 10.1796Z" fill="#6FCF97"/>
</g>
<path d="M164.839 23.8H149.453V33.1326H164.839V23.8Z" fill="white"/>
<path d="M168.986 25.6571L165.59 27.0424V29.9295L168.986 31.3148H170.218V25.6571H168.986Z" fill="white"/>
<defs>
<filter id="filter0_d" x="38.7973" y="0.179565" width="68.7565" height="67.3564" filterUnits="userSpaceOnUse" color-interpolation-filters="sRGB">
<feFlood flood-opacity="0" result="BackgroundImageFix"/>
<feColorMatrix in="SourceAlpha" type="matrix" values="0 0 0 0 0 0 0 0 0 0 0 0 0 0 0 0 0 0 127 0"/>
<feOffset dx="5" dy="5"/>
<feGaussianBlur stdDeviation="7.5"/>
<feColorMatrix type="matrix" values="0 0 0 0 0 0 0 0 0 0 0 0 0 0 0 0 0 0 0.15 0"/>
<feBlend mode="normal" in2="BackgroundImageFix" result="effect1_dropShadow"/>
<feBlend mode="normal" in="SourceGraphic" in2="effect1_dropShadow" result="shape"/>
</filter>
<filter id="filter1_d" x="172.446" y="88.3564" width="68.7565" height="67.3564" filterUnits="userSpaceOnUse" color-interpolation-filters="sRGB">
<feFlood flood-opacity="0" result="BackgroundImageFix"/>
<feColorMatrix in="SourceAlpha" type="matrix" values="0 0 0 0 0 0 0 0 0 0 0 0 0 0 0 0 0 0 127 0"/>
<feOffset dx="5" dy="5"/>
<feGaussianBlur stdDeviation="7.5"/>
<feColorMatrix type="matrix" values="0 0 0 0 0 0 0 0 0 0 0 0 0 0 0 0 0 0 0.15 0"/>
<feBlend mode="normal" in2="BackgroundImageFix" result="effect1_dropShadow"/>
<feBlend mode="normal" in="SourceGraphic" in2="effect1_dropShadow" result="shape"/>
</filter>
<filter id="filter2_d" x="0.040741" y="88.3564" width="68.7565" height="67.3563" filterUnits="userSpaceOnUse" color-interpolation-filters="sRGB">
<feFlood flood-opacity="0" result="BackgroundImageFix"/>
<feColorMatrix in="SourceAlpha" type="matrix" values="0 0 0 0 0 0 0 0 0 0 0 0 0 0 0 0 0 0 127 0"/>
<feOffset dx="5" dy="5"/>
<feGaussianBlur stdDeviation="7.5"/>
<feColorMatrix type="matrix" values="0 0 0 0 0 0 0 0 0 0 0 0 0 0 0 0 0 0 0.15 0"/>
<feBlend mode="normal" in2="BackgroundImageFix" result="effect1_dropShadow"/>
<feBlend mode="normal" in="SourceGraphic" in2="effect1_dropShadow" result="shape"/>
</filter>
<filter id="filter3_d" x="130.051" y="0.179565" width="68.7564" height="67.3564" filterUnits="userSpaceOnUse" color-interpolation-filters="sRGB">
<feFlood flood-opacity="0" result="BackgroundImageFix"/>
<feColorMatrix in="SourceAlpha" type="matrix" values="0 0 0 0 0 0 0 0 0 0 0 0 0 0 0 0 0 0 127 0"/>
<feOffset dx="5" dy="5"/>
<feGaussianBlur stdDeviation="7.5"/>
<feColorMatrix type="matrix" values="0 0 0 0 0 0 0 0 0 0 0 0 0 0 0 0 0 0 0.15 0"/>
<feBlend mode="normal" in2="BackgroundImageFix" result="effect1_dropShadow"/>
<feBlend mode="normal" in="SourceGraphic" in2="effect1_dropShadow" result="shape"/>
</filter>
</defs>
</svg>
