<svg width="34" height="38" viewBox="0 0 34 38" fill="none" xmlns="http://www.w3.org/2000/svg">
<path d="M32.5443 11.875C33.0369 11.875 33.44 11.4742 33.44 10.9844V8.01562C33.44 7.52578 33.0369 7.125 32.5443 7.125H31.0514V3.5625C31.0514 1.5957 29.4466 0 27.4686 0H3.58286C1.60482 0 0 1.5957 0 3.5625V34.4375C0 36.4043 1.60482 38 3.58286 38H27.4686C29.4466 38 31.0514 36.4043 31.0514 34.4375V30.875H32.5443C33.0369 30.875 33.44 30.4742 33.44 29.9844V27.0156C33.44 26.5258 33.0369 26.125 32.5443 26.125H31.0514V21.375H32.5443C33.0369 21.375 33.44 20.9742 33.44 20.4844V17.5156C33.44 17.0258 33.0369 16.625 32.5443 16.625H31.0514V11.875H32.5443ZM15.5257 9.5C18.1606 9.5 20.3029 11.6301 20.3029 14.25C20.3029 16.8699 18.1606 19 15.5257 19C12.8908 19 10.7486 16.8699 10.7486 14.25C10.7486 11.6301 12.8908 9.5 15.5257 9.5ZM23.8857 27.075C23.8857 27.8617 23.1393 28.5 22.2137 28.5H8.83771C7.91214 28.5 7.16571 27.8617 7.16571 27.075V25.65C7.16571 23.2898 9.41246 21.375 12.1817 21.375H12.5549C13.473 21.7535 14.4733 21.9688 15.5257 21.9688C16.5782 21.9688 17.5859 21.7535 18.4965 21.375H18.8697C21.639 21.375 23.8857 23.2898 23.8857 25.65V27.075Z" fill="#316099"/>
</svg>
